<?xml version="1.0" encoding="UTF-8" standalone="no"?>
<!-- Created with Inkscape (http://www.inkscape.org/) -->

<svg
   xmlns:dc="http://purl.org/dc/elements/1.1/"
   xmlns:cc="http://creativecommons.org/ns#"
   xmlns:rdf="http://www.w3.org/1999/02/22-rdf-syntax-ns#"
   xmlns:svg="http://www.w3.org/2000/svg"
   xmlns="http://www.w3.org/2000/svg"
   xmlns:sodipodi="http://sodipodi.sourceforge.net/DTD/sodipodi-0.dtd"
   xmlns:inkscape="http://www.inkscape.org/namespaces/inkscape"
   width="185.25031"
   height="26.27586"
   viewBox="0 0 49.014144 6.9521544"
   version="1.1"
   id="svg10112"
   inkscape:version="0.92.0 r15299"
   sodipodi:docname="robert half.svg">
  <defs
     id="defs10106">
    <clipPath
       id="clipPath9871"
       clipPathUnits="userSpaceOnUse">
      <path
         inkscape:connector-curvature="0"
         id="path9869"
         d="M 0,0 H 396 V 612 H 0 Z" />
    </clipPath>
  </defs>
  <sodipodi:namedview
     id="base"
     pagecolor="#ffffff"
     bordercolor="#666666"
     borderopacity="1.0"
     inkscape:pageopacity="0.0"
     inkscape:pageshadow="2"
     inkscape:zoom="4.8683678"
     inkscape:cx="92.125334"
     inkscape:cy="12.637992"
     inkscape:document-units="mm"
     inkscape:current-layer="layer1"
     showgrid="false"
     fit-margin-top="0"
     fit-margin-left="0"
     fit-margin-right="0"
     fit-margin-bottom="0"
     units="px"
     inkscape:window-width="1280"
     inkscape:window-height="744"
     inkscape:window-x="-4"
     inkscape:window-y="-4"
     inkscape:window-maximized="1" />
  <metadata
     id="metadata10109">
    <rdf:RDF>
      <cc:Work
         rdf:about="">
        <dc:format>image/svg+xml</dc:format>
        <dc:type
           rdf:resource="http://purl.org/dc/dcmitype/StillImage" />
        <dc:title></dc:title>
      </cc:Work>
    </rdf:RDF>
  </metadata>
  <g
     inkscape:label="Layer 1"
     inkscape:groupmode="layer"
     id="layer1"
     transform="translate(-101.86922,-214.7726)">
    <g
       id="g10250"
       transform="translate(0.13229162,-0.1322878)">
      <path
         inkscape:connector-curvature="0"
         id="path9863"
         style="fill:#ffffff;fill-opacity:1;fill-rule:nonzero;stroke:none;stroke-width:0.35277778"
         d="m 101.86923,221.72475 h 9.41564 v -6.60329 h -9.41564 z" />
      <path
         d="m 105.55857,217.61524 c -0.0794,-0.01 -0.16898,-0.0166 -0.27658,-0.0166 -0.50235,0 -0.75706,0.29351 -0.75706,0.87171 v 1.78682 h -1.18815 v -3.66712 h 1.16663 v 0.33443 c 0.21132,-0.23812 0.5267,-0.43533 0.92252,-0.43533 0.0504,0 0.0928,0.002 0.13264,0.004 z m 1.79035,-2.49379 v 1.80517 c 0.24553,-0.29669 0.61947,-0.4445 0.98989,-0.4445 0.96626,0 1.47885,0.56868 1.47885,1.68557 v 2.0895 h -1.18851 v -2.03164 c 0,-0.30586 -0.15346,-0.67028 -0.60008,-0.67028 -0.39864,0 -0.68015,0.28081 -0.68015,0.77117 v 1.93075 h -1.18851 v -5.13574 h -4.29119 v 6.6033 h 9.41564 v -6.6033 z"
         style="fill:#a70925;fill-opacity:1;fill-rule:nonzero;stroke:none;stroke-width:0.35277778"
         id="path9875"
         inkscape:connector-curvature="0" />
      <path
         d="m 114.22385,217.32879 h 0.62512 c 0.69921,0 1.11125,-0.30903 1.11125,-0.80186 0,-0.46355 -0.35348,-0.75777 -1.03011,-0.75777 h -0.70626 z m -0.73589,-2.20733 h 1.258 c 1.0153,0 1.9939,0.16192 1.9939,1.39065 0,0.62547 -0.46355,1.0668 -1.05939,1.16981 v 0.0148 c 0.22825,0.0882 0.33867,0.19861 0.50024,0.51505 l 0.9712,2.04541 h -0.83856 l -0.7874,-1.78047 c -0.22789,-0.50024 -0.47096,-0.50024 -0.86078,-0.50024 h -0.44132 v 2.28071 h -0.73589 z"
         style="fill:#38322d;fill-opacity:1;fill-rule:nonzero;stroke:none;stroke-width:0.35277778"
         id="path9879"
         inkscape:connector-curvature="0" />
      <path
         d="m 119.12005,219.79682 c 0.79163,0 1.14406,-0.71931 1.14406,-1.37407 0,-0.69815 -0.42439,-1.37442 -1.14406,-1.37442 -0.72637,0 -1.15111,0.67627 -1.15111,1.37442 0,0.65476 0.35277,1.37407 1.15111,1.37407 m 0,-3.2953 c 1.11548,0 1.86372,0.80575 1.86372,1.92123 0,1.05022 -0.7627,1.92088 -1.86372,1.92088 -1.10772,0 -1.87043,-0.87066 -1.87043,-1.92088 0,-1.11548 0.74824,-1.92123 1.87043,-1.92123"
         style="fill:#38322d;fill-opacity:1;fill-rule:nonzero;stroke:none;stroke-width:0.35277778"
         id="path9883"
         inkscape:connector-curvature="0" />
      <path
         d="m 123.45851,217.04833 c -0.73413,0 -1.08656,0.69815 -1.08656,1.38148 0,0.61171 0.31645,1.36701 1.07915,1.36701 0.72672,0 1.0287,-0.81315 1.01459,-1.38853 0.0141,-0.66181 -0.2734,-1.35996 -1.00718,-1.35996 m -1.76283,-1.92476 h 0.67627 v 1.96815 h 0.0141 c 0.20884,-0.33831 0.57573,-0.5902 1.21602,-0.5902 1.06504,0 1.58291,0.87066 1.58291,1.85632 0,1.00753 -0.46778,1.98579 -1.5755,1.98579 -0.65476,0 -1.07209,-0.33091 -1.25201,-0.60431 h -0.0145 v 0.51788 h -0.64735 z"
         style="fill:#38322d;fill-opacity:1;fill-rule:nonzero;stroke:none;stroke-width:0.35277778"
         id="path9887"
         inkscape:connector-curvature="0" />
      <path
         d="m 128.38753,218.06997 c 0,-0.56092 -0.33091,-1.02164 -0.91369,-1.02164 -0.66182,0 -0.93522,0.5468 -0.98567,1.02164 z m 0.43886,2.03623 c -0.25894,0.0935 -0.55387,0.23742 -1.15817,0.23742 -1.30246,0 -1.89971,-0.79128 -1.89971,-1.98578 0,-1.08621 0.68368,-1.85632 1.71979,-1.85632 1.22308,0 1.6189,0.89218 1.6189,2.07222 h -2.61903 c 0,0.72672 0.56833,1.22308 1.20862,1.22308 0.44627,0 0.96414,-0.23037 1.1296,-0.36689 z"
         style="fill:#38322d;fill-opacity:1;fill-rule:nonzero;stroke:none;stroke-width:0.35277778"
         id="path9891"
         inkscape:connector-curvature="0" />
      <path
         d="m 134.39851,217.13476 h -0.97155 v 2.00731 c 0,0.42439 0.25929,0.65475 0.56833,0.65475 0.20884,0 0.35983,-0.0646 0.46072,-0.12947 v 0.57573 c -0.15099,0.043 -0.35983,0.10055 -0.57573,0.10055 -0.69779,0 -1.12959,-0.33091 -1.12959,-1.06469 v -2.14418 h -0.55528 v -0.54681 h 0.55528 v -0.84913 l 0.67627,-0.21555 v 1.06468 h 0.97155 z"
         style="fill:#38322d;fill-opacity:1;fill-rule:nonzero;stroke:none;stroke-width:0.35277778"
         id="path9895"
         inkscape:connector-curvature="0" />
      <path
         d="m 136.62912,215.12146 h 0.73589 v 2.14877 h 2.45781 v -2.14877 h 0.73554 v 5.13574 h -0.73554 v -2.33962 h -2.45781 v 2.33962 h -0.73589 z"
         style="fill:#38322d;fill-opacity:1;fill-rule:nonzero;stroke:none;stroke-width:0.35277778"
         id="path9899"
         inkscape:connector-curvature="0" />
      <path
         d="m 143.68926,218.50918 c -0.14393,0 -0.28787,-0.0145 -0.43145,-0.0145 -0.36724,0 -1.27388,0.0575 -1.27388,0.70485 0,0.38876 0.3743,0.59725 0.68369,0.59725 0.66922,0 1.02164,-0.41734 1.02164,-0.96414 z m -2.00731,-1.66229 c 0.33832,-0.20143 0.74119,-0.34537 1.20862,-0.34537 1.05057,0 1.47532,0.51823 1.47532,1.51836 v 1.518 c 0,0.41734 0.0141,0.61136 0.0286,0.71931 h -0.63323 v -0.47484 h -0.0145 c -0.15804,0.22331 -0.51787,0.56127 -1.13665,0.56127 -0.79163,0 -1.34549,-0.34537 -1.34549,-1.14405 0,-0.92075 1.00718,-1.20862 1.70533,-1.20862 0.26599,0 0.45332,0 0.71931,0.0145 0,-0.63323 -0.23001,-0.95708 -0.90664,-0.95708 -0.381,0 -0.79128,0.14393 -1.06468,0.37429 z"
         style="fill:#38322d;fill-opacity:1;fill-rule:nonzero;stroke:none;stroke-width:0.35277778"
         id="path9903"
         inkscape:connector-curvature="0" />
      <path
         d="m 145.37977,215.12357 h 0.67627 v 2.67652 2.4571 h -0.67627 v -2.4571 z"
         style="fill:#38322d;fill-opacity:1;fill-rule:nonzero;stroke:none;stroke-width:0.35277778"
         id="path9907"
         inkscape:connector-curvature="0" />
      <path
         d="m 147.17612,217.13476 h -0.51717 v -0.54681 h 0.51717 v -0.0758 c 0,-0.89218 0.23001,-1.47497 1.23014,-1.47497 0.17286,0 0.31644,0.0219 0.45332,0.0434 l -0.0289,0.5468 c -0.079,-0.0289 -0.20849,-0.0434 -0.3235,-0.0434 -0.58279,0 -0.65476,0.3743 -0.65476,0.87065 v 0.13335 h 0.9712 v 0.54681 h -0.9712 v 3.12244 h -0.67627 z"
         style="fill:#38322d;fill-opacity:1;fill-rule:nonzero;stroke:none;stroke-width:0.35277778"
         id="path9911"
         inkscape:connector-curvature="0" />
      <path
         d="m 131.81547,216.54382 c -0.12347,-0.0247 -0.22331,-0.0423 -0.40499,-0.0423 -0.38876,0 -0.77717,0.2734 -0.95708,0.65475 h -0.0145 v -0.56832 h -0.63288 v 3.66924 h 0.67627 v -1.66899 c 0,-0.92111 0.39582,-1.49649 0.99978,-1.49649 0.10301,0 0.22225,0.0127 0.33337,0.0512 z"
         style="fill:#38322d;fill-opacity:1;fill-rule:nonzero;stroke:none;stroke-width:0.35277778"
         id="path9915"
         inkscape:connector-curvature="0" />
      <path
         d="m 150.00257,215.6859 c 0.0286,-0.002 0.054,-0.007 0.0759,-0.0155 0.0219,-0.008 0.0395,-0.0222 0.0529,-0.0413 0.0138,-0.0187 0.0208,-0.0448 0.0208,-0.0776 0,-0.0282 -0.006,-0.0508 -0.0159,-0.0677 -0.0106,-0.0173 -0.0243,-0.031 -0.0423,-0.0413 -0.0176,-0.0102 -0.0374,-0.0173 -0.0593,-0.0212 -0.0219,-0.004 -0.0455,-0.005 -0.0699,-0.005 h -0.17744 v 0.27269 h 0.12805 c 0.0293,0 0.0582,-10e-4 0.0871,-0.003 m -0.31256,0.43497 v -0.78739 h 0.30233 c 0.0892,0 0.15416,0.0187 0.19473,0.0557 0.0413,0.0374 0.0617,0.0914 0.0617,0.16228 0,0.0339 -0.005,0.0639 -0.0155,0.0896 -0.0106,0.0258 -0.0247,0.0473 -0.043,0.0649 -0.0183,0.018 -0.0392,0.0318 -0.0635,0.0423 -0.0236,0.0102 -0.049,0.0176 -0.0755,0.0229 l 0.23425,0.3496 h -0.1136 l -0.22154,-0.3496 h -0.16298 v 0.3496 z m 0.018,-0.93203 c -0.0705,0.0303 -0.13123,0.072 -0.18239,0.12453 -0.0515,0.0526 -0.0914,0.11394 -0.11994,0.18485 -0.0289,0.0709 -0.043,0.14711 -0.043,0.22895 0,0.0819 0.0141,0.15805 0.043,0.22896 0.0286,0.0709 0.0684,0.13229 0.11994,0.18485 0.0512,0.0526 0.11184,0.0942 0.18239,0.12453 0.0699,0.0307 0.1464,0.0459 0.22966,0.0459 0.0815,0 0.15769,-0.0152 0.22789,-0.0459 0.0702,-0.0303 0.13088,-0.072 0.18204,-0.12453 0.0515,-0.0526 0.0917,-0.11394 0.121,-0.18485 0.0293,-0.0709 0.0437,-0.14711 0.0437,-0.22896 0,-0.0818 -0.0145,-0.15804 -0.0437,-0.22895 -0.0293,-0.0709 -0.0695,-0.13229 -0.121,-0.18485 -0.0512,-0.0526 -0.11183,-0.0942 -0.18204,-0.12453 -0.0702,-0.0307 -0.1464,-0.0459 -0.22789,-0.0459 -0.0833,0 -0.15981,0.0152 -0.22966,0.0459 m 0.49883,-0.0907 c 0.0829,0.0349 0.15487,0.0829 0.21625,0.14464 0.061,0.0617 0.10866,0.13406 0.14358,0.21696 0.0346,0.0829 0.0522,0.17216 0.0522,0.2674 0,0.0963 -0.0176,0.18592 -0.0522,0.26812 -0.0349,0.0825 -0.0826,0.15416 -0.14358,0.21519 -0.0614,0.061 -0.13335,0.10901 -0.21625,0.14393 -0.0833,0.0346 -0.17286,0.0522 -0.26917,0.0522 -0.0967,0 -0.18627,-0.0176 -0.26952,-0.0522 -0.0833,-0.0349 -0.15487,-0.0829 -0.2159,-0.14393 -0.061,-0.061 -0.10901,-0.13264 -0.14358,-0.21519 -0.0349,-0.0822 -0.0526,-0.17181 -0.0526,-0.26812 0,-0.0952 0.0176,-0.1845 0.0526,-0.2674 0.0346,-0.0829 0.0825,-0.15522 0.14358,-0.21696 0.061,-0.0617 0.13264,-0.10971 0.2159,-0.14464 0.0832,-0.0346 0.17286,-0.0522 0.26952,-0.0522 0.0963,0 0.18591,0.0176 0.26917,0.0522"
         style="fill:#38322d;fill-opacity:1;fill-rule:nonzero;stroke:none;stroke-width:0.35277778"
         id="path9919"
         inkscape:connector-curvature="0" />
    </g>
  </g>
</svg>
